<svg t="1694072990795" class="icon" viewBox="0 0 1024 1024" version="1.1" xmlns="http://www.w3.org/2000/svg" p-id="11113" width="200" height="200"><path d="M512 512m-512 0a512 512 0 1 0 1024 0 512 512 0 1 0-1024 0Z" fill="#99E7FF" p-id="11114"></path><path d="M861.090909 512a116.363636 116.363636 0 0 0-81.92-110.545455 116.363636 116.363636 0 0 0-20.247273-136.145454 114.734545 114.734545 0 0 0-136.145454-20.247273 116.363636 116.363636 0 0 0-221.323637 0 116.363636 116.363636 0 0 0-156.392727 156.392727 116.363636 116.363636 0 0 0 0 221.323637 116.363636 116.363636 0 0 0 20.247273 136.145454 114.734545 114.734545 0 0 0 136.145454 20.247273 116.363636 116.363636 0 0 0 221.323637 0 116.363636 116.363636 0 0 0 156.392727-156.392727A116.363636 116.363636 0 0 0 861.090909 512z m-184.552727-257.629091A93.090909 93.090909 0 0 1 755.432727 395.636364H628.363636v-116.363637-10.705454a93.090909 93.090909 0 0 1 48.174546-14.196364z m-148.014546 405.643636l-9.774545-9.774545A23.272727 23.272727 0 0 0 535.272727 628.363636v-60.276363l42.589091 42.589091a23.272727 23.272727 0 0 0 27.229091 3.723636v122.181818z m-33.047272-296.02909l9.774545 9.774545A23.272727 23.272727 0 0 0 488.727273 395.636364v60.276363l-42.589091-42.589091A23.272727 23.272727 0 0 0 418.909091 409.6v-122.414545zM605.090909 395.636364v13.963636a23.272727 23.272727 0 0 0-27.229091 3.723636L535.272727 455.912727V395.636364a23.272727 23.272727 0 0 0-16.523636-21.876364l9.774545-9.774545 76.567273-76.8z m-128 116.363636a34.909091 34.909091 0 1 1 34.909091 34.909091 34.909091 34.909091 0 0 1-34.909091-34.909091z m-63.767273-65.861818L455.912727 488.727273H395.636364a23.272727 23.272727 0 0 0-21.876364 16.523636l-9.774545-9.774545-76.8-76.567273h122.414545a23.272727 23.272727 0 0 0 3.723636 27.229091z m-39.563636 72.378182A23.272727 23.272727 0 0 0 395.636364 535.272727h60.276363l-42.589091 42.589091A23.272727 23.272727 0 0 0 409.6 605.090909h-122.414545l76.567272-76.567273zM418.909091 628.363636v-13.963636a23.272727 23.272727 0 0 0 27.229091-3.723636L488.727273 568.087273V628.363636a23.272727 23.272727 0 0 0 16.523636 21.876364l-9.774545 9.774545-76.567273 76.8z m191.767273-50.501818L568.087273 535.272727H628.363636a23.272727 23.272727 0 0 0 21.876364-16.523636l9.774545 9.774545 76.8 76.567273H614.4a23.272727 23.272727 0 0 0-3.723636-27.229091z m39.563636-72.378182A23.272727 23.272727 0 0 0 628.363636 488.727273h-60.276363l42.589091-42.589091A23.272727 23.272727 0 0 0 614.4 418.909091h122.181818l-76.567273 76.567273zM512 186.181818a93.090909 93.090909 0 0 1 90.530909 72.145455c-2.792727 2.327273-5.585455 4.189091-8.145454 6.749091L512 347.461818l-82.385455-82.385454c-2.56-2.56-5.585455-4.421818-8.145454-6.749091A93.090909 93.090909 0 0 1 512 186.181818z m-230.4 95.418182a93.090909 93.090909 0 0 1 114.036364-13.032727V395.636364h-127.069091a93.090909 93.090909 0 0 1 13.032727-114.036364zM186.181818 512a93.090909 93.090909 0 0 1 72.145455-90.530909c2.327273 2.792727 4.189091 5.585455 6.749091 8.145454L347.461818 512l-82.385454 82.385455c-2.56 2.56-4.421818 5.585455-6.749091 8.145454A93.090909 93.090909 0 0 1 186.181818 512z m161.28 257.629091A93.090909 93.090909 0 0 1 268.567273 628.363636H395.636364v127.069091a93.090909 93.090909 0 0 1-48.174546 14.196364zM512 837.818182a93.090909 93.090909 0 0 1-90.530909-72.145455c2.792727-2.327273 5.585455-4.189091 8.145454-6.749091L512 676.538182l82.385455 82.385454c2.56 2.56 5.585455 4.421818 8.145454 6.749091A93.090909 93.090909 0 0 1 512 837.818182z m230.4-95.418182a93.090909 93.090909 0 0 1-115.2 13.032727V628.363636h127.069091a93.090909 93.090909 0 0 1-11.869091 114.036364z m23.272727-139.636364c-2.327273-2.792727-4.189091-5.585455-6.749091-8.145454L676.538182 512l82.385454-82.385455c2.56-2.56 4.421818-5.585455 6.749091-8.145454a93.090909 93.090909 0 0 1 0 181.061818z" fill="#00A6CC" p-id="11115"></path></svg>